<svg width="355" height="88" viewBox="0 0 355 88" fill="none" xmlns="http://www.w3.org/2000/svg">
<path d="M45.734 14.9503L46.3429 27.8602H44.8003C44.5025 25.5868 44.0966 23.9629 43.5823 22.9886C42.7433 21.4188 41.6202 20.2686 40.2128 19.5378C38.8325 18.78 37.0056 18.4011 34.7322 18.4011H26.9781V60.4597C26.9781 63.8428 27.3435 65.9538 28.0743 66.7928C29.1027 67.9295 30.686 68.4979 32.8241 68.4979H34.7322V70H11.3888V68.4979H13.3375C15.6651 68.4979 17.316 67.7942 18.2904 66.3869C18.8858 65.5208 19.1835 63.5451 19.1835 60.4597V18.4011H12.5662C9.99502 18.4011 8.16815 18.5905 7.08556 18.9695C5.67819 19.4837 4.47381 20.4715 3.47242 21.933C2.47102 23.3945 1.8756 25.3703 1.68614 27.8602H0.143454L0.793008 14.9503H45.734ZM63.004 31.7169C68.6335 31.7169 73.1533 33.8551 76.5634 38.1313C79.4594 41.785 80.9073 45.9801 80.9073 50.7164C80.9073 54.0453 80.1089 57.4149 78.5121 60.8251C76.9153 64.2352 74.7095 66.8064 71.8948 68.5385C69.1071 70.2706 65.9947 71.1367 62.5574 71.1367C56.955 71.1367 52.5029 68.9039 49.201 64.4382C46.4133 60.6762 45.0195 56.4541 45.0195 51.7719C45.0195 48.3617 45.8585 44.9787 47.5365 41.6226C49.2416 38.2395 51.4744 35.7496 54.235 34.1528C56.9956 32.5289 59.9186 31.7169 63.004 31.7169ZM61.7455 34.3557C60.3111 34.3557 58.8631 34.7888 57.4016 35.6549C55.9672 36.4939 54.8034 37.9824 53.9102 40.1205C53.0171 42.2587 52.5705 45.0057 52.5705 48.3617C52.5705 53.7747 53.6396 58.4434 55.7777 62.3677C57.9429 66.2921 60.7847 68.2543 64.3031 68.2543C66.9284 68.2543 69.0936 67.1717 70.7986 65.0066C72.5037 62.8414 73.3563 59.12 73.3563 53.8424C73.3563 47.2386 71.9354 42.0421 69.0936 38.2531C67.172 35.6549 64.7226 34.3557 61.7455 34.3557ZM90.9916 39.5928C95.3491 34.3422 99.5035 31.7169 103.455 31.7169C105.485 31.7169 107.23 32.2312 108.692 33.2596C110.153 34.261 111.317 35.9255 112.183 38.2531C112.779 39.877 113.076 42.3669 113.076 45.7229V61.5964C113.076 63.951 113.266 65.5479 113.645 66.3869C113.943 67.0635 114.416 67.5912 115.066 67.9701C115.742 68.3491 116.974 68.5385 118.76 68.5385V70H100.37V68.5385H101.141C102.873 68.5385 104.077 68.2814 104.754 67.7672C105.458 67.2259 105.945 66.441 106.216 65.4125C106.324 65.0066 106.378 63.7345 106.378 61.5964V46.3725C106.378 42.9894 105.931 40.54 105.038 39.0244C104.172 37.4817 102.697 36.7104 100.613 36.7104C97.3924 36.7104 94.1853 38.4696 90.9916 41.988V61.5964C90.9916 64.1134 91.1405 65.6696 91.4382 66.2651C91.8171 67.0499 92.3313 67.6318 92.9809 68.0107C93.6575 68.3626 95.0108 68.5385 97.0406 68.5385V70H78.6501V68.5385H79.4621C81.3566 68.5385 82.6286 68.0649 83.2782 67.1176C83.9548 66.1433 84.2931 64.3029 84.2931 61.5964V47.7934C84.2931 43.3277 84.1849 40.6077 83.9683 39.6334C83.7789 38.659 83.4676 37.996 83.0346 37.6441C82.6286 37.2923 82.0738 37.1164 81.3701 37.1164C80.6123 37.1164 79.7056 37.3193 78.6501 37.7253L78.0412 36.2638L89.246 31.7169H90.9916V39.5928ZM113.377 32.8131H130.712V34.3152H129.859C128.641 34.3152 127.721 34.5858 127.099 35.1271C126.503 35.6413 126.206 36.2909 126.206 37.0758C126.206 38.1313 126.652 39.5928 127.545 41.4602L136.598 60.2161L144.921 39.674C145.381 38.5643 145.611 37.4682 145.611 36.3856C145.611 35.8984 145.516 35.5331 145.327 35.2895C145.11 34.9918 144.772 34.7617 144.312 34.5993C143.852 34.4099 143.04 34.3152 141.876 34.3152V32.8131H153.974V34.3152C152.973 34.4234 152.201 34.6399 151.66 34.9647C151.119 35.2895 150.523 35.8984 149.874 36.7916C149.63 37.1705 149.17 38.2125 148.493 39.9176L133.351 77.0233C131.889 80.6229 129.968 83.3429 127.586 85.1833C125.231 87.0237 122.958 87.9439 120.766 87.9439C119.169 87.9439 117.856 87.4838 116.828 86.5636C115.799 85.6434 115.285 84.5879 115.285 83.397C115.285 82.2603 115.65 81.3401 116.381 80.6364C117.139 79.9598 118.167 79.6215 119.466 79.6215C120.36 79.6215 121.577 79.9192 123.12 80.5146C124.203 80.9206 124.879 81.1236 125.15 81.1236C125.962 81.1236 126.842 80.7041 127.789 79.8651C128.763 79.0261 129.738 77.4022 130.712 74.9934L133.351 68.5385L119.994 40.4859C119.588 39.6469 118.939 38.6049 118.046 37.3599C117.369 36.4127 116.814 35.7766 116.381 35.4519C115.759 35.0188 114.757 34.6399 113.377 34.3152V32.8131ZM193.183 13.6918C200.328 13.6918 206.512 16.4118 211.736 21.8518C216.986 27.2648 219.611 34.031 219.611 42.1504C219.611 50.5134 216.973 57.4555 211.695 62.9767C206.417 68.4979 200.03 71.2585 192.533 71.2585C184.955 71.2585 178.581 68.5656 173.412 63.1797C168.27 57.7938 165.698 50.8246 165.698 42.2722C165.698 33.5303 168.676 26.3987 174.63 20.8775C179.799 16.0871 185.983 13.6918 193.183 13.6918ZM192.411 16.6554C187.486 16.6554 183.534 18.4823 180.557 22.136C176.849 26.6829 174.995 33.3408 174.995 42.1098C174.995 51.0953 176.917 58.0103 180.76 62.8549C183.71 66.5357 187.607 68.3761 192.452 68.3761C197.621 68.3761 201.884 66.3598 205.24 62.3271C208.623 58.2945 210.315 51.9343 210.315 43.2465C210.315 33.828 208.461 26.8047 204.753 22.1766C201.776 18.4958 197.662 16.6554 192.411 16.6554ZM199.678 0.66016C200.896 0.66016 201.925 1.0932 202.764 1.95927C203.63 2.82534 204.063 3.86733 204.063 5.08524C204.063 6.30316 203.63 7.34515 202.764 8.21122C201.925 9.05023 200.896 9.46973 199.678 9.46973C198.46 9.46973 197.418 9.05023 196.552 8.21122C195.686 7.34515 195.253 6.30316 195.253 5.08524C195.253 3.86733 195.686 2.82534 196.552 1.95927C197.418 1.0932 198.46 0.66016 199.678 0.66016ZM185.347 0.66016C186.592 0.66016 187.634 1.0932 188.473 1.95927C189.339 2.82534 189.772 3.86733 189.772 5.08524C189.772 6.30316 189.339 7.34515 188.473 8.21122C187.607 9.05023 186.579 9.46973 185.388 9.46973C184.17 9.46973 183.128 9.05023 182.262 8.21122C181.396 7.34515 180.963 6.30316 180.963 5.08524C180.963 3.86733 181.382 2.82534 182.221 1.95927C183.088 1.0932 184.129 0.66016 185.347 0.66016ZM251.537 58.5922L251.09 70H218.288V68.5385L242.971 35.6549H230.792C228.167 35.6549 226.448 35.8308 225.636 36.1826C224.824 36.5074 224.161 37.1434 223.647 38.0907C222.916 39.4439 222.496 41.1219 222.388 43.1247H220.764L221.008 32.8131H252.186V34.3152L227.26 67.28H240.819C243.661 67.28 245.583 67.0499 246.584 66.5898C247.613 66.1027 248.438 65.2637 249.06 64.0728C249.494 63.2068 249.859 61.3799 250.157 58.5922H251.537ZM260.931 12.2709V49.2955L270.39 40.6483C272.393 38.8079 273.557 37.6441 273.882 37.1569C274.098 36.8322 274.206 36.5074 274.206 36.1826C274.206 35.6413 273.976 35.1812 273.516 34.8023C273.083 34.3963 272.352 34.1663 271.324 34.1122V32.8131H287.482V34.1122C285.262 34.1663 283.408 34.5046 281.92 35.1271C280.458 35.7496 278.848 36.8592 277.089 38.4561L267.548 47.2656L277.089 59.323C279.741 62.6519 281.527 64.763 282.448 65.6561C283.747 66.9282 284.883 67.7536 285.858 68.1325C286.534 68.4032 287.712 68.5385 289.39 68.5385V70H271.324V68.5385C272.352 68.5114 273.043 68.3626 273.394 68.0919C273.773 67.7942 273.963 67.3883 273.963 66.874C273.963 66.2515 273.421 65.2501 272.339 63.8698L260.931 49.2955V61.637C260.931 64.0458 261.093 65.629 261.418 66.3869C261.77 67.1447 262.257 67.686 262.88 68.0107C263.502 68.3355 264.855 68.5114 266.939 68.5385V70H248.021V68.5385C249.916 68.5385 251.337 68.3085 252.284 67.8484C252.852 67.5506 253.285 67.0905 253.583 66.4681C253.989 65.5749 254.192 64.0322 254.192 61.84V27.982C254.192 23.6787 254.097 21.0534 253.908 20.1062C253.718 19.1318 253.407 18.4688 252.974 18.1169C252.541 17.738 251.973 17.5486 251.269 17.5486C250.701 17.5486 249.848 17.7786 248.711 18.2387L248.021 16.8178L259.064 12.2709H260.931ZM306.335 64.6412C302.519 67.5912 300.124 69.2963 299.149 69.7564C297.688 70.433 296.131 70.7713 294.481 70.7713C291.909 70.7713 289.785 69.8917 288.107 68.1325C286.456 66.3733 285.63 64.0593 285.63 61.1904C285.63 59.3771 286.036 57.8073 286.848 56.4812C287.958 54.6408 289.88 52.9086 292.613 51.2847C295.374 49.6609 299.948 47.6851 306.335 45.3576V43.8961C306.335 40.1882 305.739 37.6441 304.549 36.2638C303.385 34.8835 301.68 34.1934 299.433 34.1934C297.728 34.1934 296.375 34.6535 295.374 35.5737C294.345 36.4939 293.831 37.5494 293.831 38.7402L293.912 41.0949C293.912 42.3398 293.587 43.3006 292.938 43.9773C292.315 44.6539 291.49 44.9922 290.461 44.9922C289.46 44.9922 288.635 44.6403 287.985 43.9367C287.363 43.233 287.051 42.2722 287.051 41.0543C287.051 38.7267 288.242 36.5886 290.624 34.6399C293.006 32.6913 296.348 31.7169 300.651 31.7169C303.953 31.7169 306.66 32.2718 308.771 33.3814C310.368 34.2204 311.545 35.5331 312.303 37.3193C312.79 38.4831 313.033 40.8648 313.033 44.4644V57.0901C313.033 60.6356 313.101 62.8143 313.236 63.6263C313.372 64.4111 313.588 64.9389 313.886 65.2095C314.211 65.4802 314.576 65.6155 314.982 65.6155C315.415 65.6155 315.794 65.5208 316.119 65.3313C316.687 64.9795 317.783 63.9916 319.407 62.3677V64.6412C316.376 68.7009 313.48 70.7307 310.719 70.7307C309.393 70.7307 308.338 70.2706 307.553 69.3504C306.768 68.4302 306.362 66.8605 306.335 64.6412ZM306.335 62.0024V47.834C302.248 49.4579 299.609 50.6081 298.418 51.2847C296.28 52.4756 294.751 53.7206 293.831 55.0197C292.911 56.3188 292.451 57.7397 292.451 59.2824C292.451 61.231 293.033 62.8549 294.196 64.154C295.36 65.4261 296.7 66.0621 298.215 66.0621C300.272 66.0621 302.979 64.7088 306.335 62.0024ZM326.812 39.5928C331.169 34.3422 335.324 31.7169 339.275 31.7169C341.305 31.7169 343.051 32.2312 344.512 33.2596C345.974 34.261 347.138 35.9255 348.004 38.2531C348.599 39.877 348.897 42.3669 348.897 45.7229V61.5964C348.897 63.951 349.086 65.5479 349.465 66.3869C349.763 67.0635 350.237 67.5912 350.886 67.9701C351.563 68.3491 352.794 68.5385 354.58 68.5385V70H336.19V68.5385H336.961C338.693 68.5385 339.898 68.2814 340.574 67.7672C341.278 67.2259 341.765 66.441 342.036 65.4125C342.144 65.0066 342.198 63.7345 342.198 61.5964V46.3725C342.198 42.9894 341.752 40.54 340.859 39.0244C339.993 37.4817 338.518 36.7104 336.434 36.7104C333.213 36.7104 330.006 38.4696 326.812 41.988V61.5964C326.812 64.1134 326.961 65.6696 327.259 66.2651C327.638 67.0499 328.152 67.6318 328.801 68.0107C329.478 68.3626 330.831 68.5385 332.861 68.5385V70H314.471V68.5385H315.282C317.177 68.5385 318.449 68.0649 319.099 67.1176C319.775 66.1433 320.114 64.3029 320.114 61.5964V47.7934C320.114 43.3277 320.005 40.6077 319.789 39.6334C319.599 38.659 319.288 37.996 318.855 37.6441C318.449 37.2923 317.894 37.1164 317.191 37.1164C316.433 37.1164 315.526 37.3193 314.471 37.7253L313.862 36.2638L325.066 31.7169H326.812V39.5928Z" fill="black"/>
</svg>
