<svg width="288" height="72" viewBox="0 0 288 72" fill="none" xmlns="http://www.w3.org/2000/svg">
<path d="M37.1703 12.375L37.6639 22.8402H36.4134C36.1721 20.9972 35.843 19.6809 35.4261 18.891C34.746 17.6185 33.8355 16.6861 32.6946 16.0937C31.5757 15.4794 30.0948 15.1723 28.2519 15.1723H21.9662V49.2663C21.9662 52.0088 22.2624 53.72 22.8548 54.4002C23.6885 55.3216 24.9719 55.7824 26.7051 55.7824H28.2519V57H9.32904V55.7824H10.9087C12.7955 55.7824 14.1338 55.2119 14.9236 54.0711C15.4063 53.369 15.6476 51.7674 15.6476 49.2663V15.1723H10.2834C8.19916 15.1723 6.71824 15.3259 5.84066 15.633C4.6998 16.0499 3.72349 16.8507 2.91173 18.0354C2.09997 19.2201 1.6173 20.8217 1.46372 22.8402H0.213167L0.739715 12.375H37.1703ZM51.1699 25.9665C55.7333 25.9665 59.3972 27.6998 62.1616 31.1662C64.5091 34.128 65.6829 37.5287 65.6829 41.3681C65.6829 44.0666 65.0357 46.7981 63.7413 49.5625C62.4468 52.3269 60.6588 54.4111 58.3771 55.8153C56.1173 57.2194 53.5942 57.9215 50.8079 57.9215C46.2664 57.9215 42.6574 56.1114 39.9808 52.4914C37.721 49.4418 36.5911 46.0193 36.5911 42.2237C36.5911 39.4593 37.2712 36.7169 38.6315 33.9964C40.0137 31.254 41.8237 29.2355 44.0615 27.9411C46.2993 26.6247 48.6688 25.9665 51.1699 25.9665ZM50.1497 28.1056C48.9869 28.1056 47.8132 28.4567 46.6284 29.1587C45.4656 29.8389 44.5222 31.0455 43.7982 32.7788C43.0742 34.512 42.7122 36.7388 42.7122 39.4593C42.7122 43.8473 43.5788 47.6318 45.3121 50.8131C47.0672 53.9943 49.3709 55.5849 52.223 55.5849C54.3511 55.5849 56.1063 54.7073 57.4885 52.9522C58.8707 51.197 59.5618 48.1803 59.5618 43.9021C59.5618 38.5489 58.41 34.3365 56.1063 31.2649C54.5486 29.1587 52.5631 28.1056 50.1497 28.1056ZM73.8576 32.3509C77.3898 28.0947 80.7576 25.9665 83.9607 25.9665C85.6062 25.9665 87.0213 26.3834 88.206 27.2171C89.3908 28.0289 90.3342 29.3781 91.0362 31.2649C91.5189 32.5813 91.7602 34.5997 91.7602 37.3202V50.1878C91.7602 52.0965 91.9138 53.3909 92.221 54.0711C92.4623 54.6196 92.8462 55.0474 93.3728 55.3545C93.9213 55.6617 94.9195 55.8153 96.3675 55.8153V57H81.4596V55.8153H82.0849C83.489 55.8153 84.4653 55.6068 85.0138 55.19C85.5843 54.7512 85.9792 54.115 86.1986 53.2812C86.2863 52.9522 86.3302 51.921 86.3302 50.1878V37.8468C86.3302 35.1044 85.9682 33.1188 85.2442 31.8902C84.5421 30.6397 83.3464 30.0144 81.6571 30.0144C79.0463 30.0144 76.4464 31.4404 73.8576 34.2926V50.1878C73.8576 52.2282 73.9783 53.4897 74.2196 53.9723C74.5267 54.6086 74.9436 55.0803 75.4701 55.3874C76.0186 55.6727 77.1156 55.8153 78.7611 55.8153V57H63.8532V55.8153H64.5113C66.0471 55.8153 67.0783 55.4313 67.6048 54.6634C68.1533 53.8736 68.4275 52.3817 68.4275 50.1878V38.9986C68.4275 35.3786 68.3398 33.1737 68.1643 32.3838C68.0107 31.594 67.7584 31.0565 67.4074 30.7713C67.0783 30.4861 66.6285 30.3435 66.0581 30.3435C65.4438 30.3435 64.7088 30.508 63.8532 30.8371L63.3595 29.6524L72.4425 25.9665H73.8576V32.3509ZM92.0038 26.8551H106.056V28.0727H105.365C104.378 28.0727 103.632 28.2921 103.127 28.7309C102.644 29.1478 102.403 29.6743 102.403 30.3106C102.403 31.1662 102.765 32.3509 103.489 33.8648L110.828 49.0689L117.574 32.4168C117.947 31.5172 118.134 30.6287 118.134 29.7511C118.134 29.3562 118.057 29.06 117.903 28.8626C117.728 28.6212 117.454 28.4347 117.081 28.3031C116.708 28.1495 116.049 28.0727 115.106 28.0727V26.8551H124.913V28.0727C124.101 28.1605 123.476 28.336 123.037 28.5993C122.598 28.8626 122.116 29.3562 121.589 30.0802C121.392 30.3874 121.019 31.232 120.47 32.6142L108.195 62.6933C107.01 65.6113 105.453 67.8162 103.522 69.3081C101.613 70.8 99.7704 71.5459 97.9933 71.5459C96.6988 71.5459 95.6348 71.1729 94.8011 70.427C93.9674 69.681 93.5505 68.8254 93.5505 67.8601C93.5505 66.9386 93.8467 66.1927 94.4391 65.6222C95.0534 65.0737 95.8871 64.7995 96.9402 64.7995C97.6642 64.7995 98.6514 65.0408 99.902 65.5235C100.78 65.8526 101.328 66.0171 101.547 66.0171C102.206 66.0171 102.919 65.6771 103.687 64.997C104.476 64.3168 105.266 63.0005 106.056 61.0478L108.195 55.8153L97.368 33.0749C97.0389 32.3948 96.5123 31.5501 95.7883 30.5409C95.2398 29.773 94.7901 29.2575 94.4391 28.9942C93.9344 28.6432 93.1227 28.336 92.0038 28.0727V26.8551ZM156.697 11.3548C162.489 11.3548 167.502 13.5597 171.736 17.9696C175.993 22.3575 178.121 27.8424 178.121 34.4242C178.121 41.2035 175.982 46.831 171.703 51.3067C167.425 55.7824 162.248 58.0202 156.17 58.0202C150.027 58.0202 144.86 55.8372 140.67 51.4712C136.502 47.1053 134.417 41.4558 134.417 34.523C134.417 27.4365 136.831 21.6554 141.657 17.1798C145.848 13.2965 150.861 11.3548 156.697 11.3548ZM156.072 13.7572C152.079 13.7572 148.875 15.2381 146.462 18.1999C143.456 21.8858 141.953 27.2829 141.953 34.3913C141.953 41.6752 143.511 47.2808 146.627 51.208C149.018 54.1917 152.177 55.6836 156.104 55.6836C160.295 55.6836 163.75 54.0491 166.471 50.7801C169.213 47.5112 170.585 42.3554 170.585 35.3128C170.585 27.6778 169.082 21.9845 166.076 18.2329C163.663 15.2491 160.328 13.7572 156.072 13.7572ZM161.962 0.790928C162.95 0.790928 163.783 1.14196 164.463 1.84403C165.166 2.54609 165.517 3.39076 165.517 4.37804C165.517 5.36532 165.166 6.20999 164.463 6.91206C163.783 7.59218 162.95 7.93224 161.962 7.93224C160.975 7.93224 160.13 7.59218 159.428 6.91206C158.726 6.20999 158.375 5.36532 158.375 4.37804C158.375 3.39076 158.726 2.54609 159.428 1.84403C160.13 1.14196 160.975 0.790928 161.962 0.790928ZM150.345 0.790928C151.355 0.790928 152.199 1.14196 152.879 1.84403C153.581 2.54609 153.932 3.39076 153.932 4.37804C153.932 5.36532 153.581 6.20999 152.879 6.91206C152.177 7.59218 151.344 7.93224 150.378 7.93224C149.391 7.93224 148.546 7.59218 147.844 6.91206C147.142 6.20999 146.791 5.36532 146.791 4.37804C146.791 3.39076 147.131 2.54609 147.811 1.84403C148.513 1.14196 149.358 0.790928 150.345 0.790928ZM204.001 47.7525L203.639 57H177.048V55.8153L197.057 29.1587H187.184C185.056 29.1587 183.663 29.3013 183.005 29.5866C182.346 29.8498 181.809 30.3654 181.392 31.1333C180.8 32.2303 180.46 33.5905 180.372 35.214H179.055L179.253 26.8551H204.527V28.0727L184.321 54.7951H195.313C197.616 54.7951 199.174 54.6086 199.986 54.2356C200.819 53.8407 201.489 53.1606 201.993 52.1952C202.344 51.4932 202.64 50.0123 202.882 47.7525H204.001ZM211.616 10.203V40.2163L219.284 33.2066C220.907 31.7147 221.851 30.7713 222.114 30.3764C222.289 30.1131 222.377 29.8498 222.377 29.5866C222.377 29.1478 222.191 28.7748 221.818 28.4676C221.467 28.1386 220.874 27.9521 220.041 27.9082V26.8551H233.139V27.9082C231.34 27.9521 229.837 28.2263 228.63 28.7309C227.445 29.2355 226.14 30.135 224.714 31.4295L216.98 38.5708L224.714 48.3449C226.864 51.0434 228.312 52.7547 229.058 53.4787C230.111 54.5099 231.032 55.179 231.822 55.4862C232.371 55.7056 233.325 55.8153 234.685 55.8153V57H220.041V55.8153C220.874 55.7933 221.434 55.6727 221.719 55.4533C222.026 55.2119 222.18 54.8828 222.18 54.466C222.18 53.9614 221.741 53.1496 220.863 52.0307L211.616 40.2163V50.2207C211.616 52.1733 211.748 53.4568 212.011 54.0711C212.296 54.6854 212.691 55.1242 213.196 55.3874C213.7 55.6507 214.797 55.7933 216.486 55.8153V57H201.151V55.8153C202.686 55.8153 203.838 55.6288 204.606 55.2558C205.067 55.0145 205.418 54.6415 205.659 54.1369C205.988 53.4129 206.153 52.1623 206.153 50.3852V22.9389C206.153 19.4505 206.076 17.3224 205.923 16.5545C205.769 15.7647 205.517 15.2271 205.166 14.9419C204.815 14.6348 204.354 14.4812 203.783 14.4812C203.323 14.4812 202.632 14.6677 201.71 15.0407L201.151 13.8888L210.102 10.203H211.616ZM248.422 52.656C245.328 55.0474 243.387 56.4296 242.597 56.8025C241.412 57.351 240.15 57.6253 238.812 57.6253C236.728 57.6253 235.006 56.9122 233.645 55.4862C232.307 54.0601 231.638 52.1843 231.638 49.8587C231.638 48.3887 231.967 47.1162 232.625 46.0412C233.525 44.5493 235.082 43.1452 237.298 41.8288C239.536 40.5124 243.244 38.9109 248.422 37.0241V35.8393C248.422 32.8336 247.939 30.7713 246.974 29.6524C246.03 28.5335 244.648 27.974 242.827 27.974C241.445 27.974 240.348 28.347 239.536 29.0929C238.702 29.8389 238.286 30.6945 238.286 31.6598L238.351 33.5686C238.351 34.5778 238.088 35.3567 237.562 35.9051C237.057 36.4536 236.388 36.7279 235.554 36.7279C234.742 36.7279 234.073 36.4427 233.547 35.8722C233.042 35.3018 232.79 34.523 232.79 33.5357C232.79 31.6489 233.755 29.9157 235.686 28.336C237.616 26.7564 240.326 25.9665 243.814 25.9665C246.491 25.9665 248.685 26.4163 250.396 27.3158C251.691 27.9959 252.645 29.06 253.259 30.508C253.654 31.4514 253.852 33.3821 253.852 36.3001V46.5348C253.852 49.4089 253.907 51.1751 254.016 51.8332C254.126 52.4695 254.301 52.8973 254.543 53.1167C254.806 53.3361 255.102 53.4458 255.431 53.4458C255.782 53.4458 256.09 53.369 256.353 53.2154C256.814 52.9302 257.702 52.1294 259.018 50.8131V52.656C256.561 55.9469 254.214 57.5924 251.976 57.5924C250.901 57.5924 250.045 57.2194 249.409 56.4735C248.773 55.7275 248.444 54.455 248.422 52.656ZM248.422 50.5169V39.0315C245.109 40.3479 242.97 41.2803 242.004 41.8288C240.271 42.7942 239.032 43.8034 238.286 44.8565C237.54 45.9096 237.167 47.0614 237.167 48.3119C237.167 49.8916 237.638 51.208 238.582 52.2611C239.525 53.2922 240.611 53.8078 241.84 53.8078C243.507 53.8078 245.701 52.7108 248.422 50.5169ZM265.021 32.3509C268.553 28.0947 271.921 25.9665 275.124 25.9665C276.77 25.9665 278.185 26.3834 279.37 27.2171C280.554 28.0289 281.498 29.3781 282.2 31.2649C282.682 32.5813 282.924 34.5997 282.924 37.3202V50.1878C282.924 52.0965 283.077 53.3909 283.384 54.0711C283.626 54.6196 284.01 55.0474 284.536 55.3545C285.085 55.6617 286.083 55.8153 287.531 55.8153V57H272.623V55.8153H273.248C274.653 55.8153 275.629 55.6068 276.177 55.19C276.748 54.7512 277.143 54.115 277.362 53.2812C277.45 52.9522 277.494 51.921 277.494 50.1878V37.8468C277.494 35.1044 277.132 33.1188 276.408 31.8902C275.706 30.6397 274.51 30.0144 272.821 30.0144C270.21 30.0144 267.61 31.4404 265.021 34.2926V50.1878C265.021 52.2282 265.142 53.4897 265.383 53.9723C265.69 54.6086 266.107 55.0803 266.634 55.3874C267.182 55.6727 268.279 55.8153 269.925 55.8153V57H255.017V55.8153H255.675C257.211 55.8153 258.242 55.4313 258.768 54.6634C259.317 53.8736 259.591 52.3817 259.591 50.1878V38.9986C259.591 35.3786 259.503 33.1737 259.328 32.3838C259.174 31.594 258.922 31.0565 258.571 30.7713C258.242 30.4861 257.792 30.3435 257.222 30.3435C256.607 30.3435 255.872 30.508 255.017 30.8371L254.523 29.6524L263.606 25.9665H265.021V32.3509Z" fill="black"/>
</svg>
